<svg version="1.0" xmlns="http://www.w3.org/2000/svg"
 width="544.000000pt" height="459.000000pt" viewBox="0 0 544.000000 459.000000"
 preserveAspectRatio="xMidYMid meet">

<g transform="translate(0.000000,459.000000) scale(0.100000,-0.100000)"
fill="green" stroke="none">
<path d="M2940 2922 c0 -10 4 -22 9 -27 13 -14 18 -125 6 -125 -6 0 -61 32
-122 70 -62 39 -120 70 -130 70 -29 -1 -587 -353 -591 -373 -2 -9 3 -20 11
-23 9 -3 129 65 294 167 153 95 283 172 288 172 6 0 135 -78 287 -173 268
-166 315 -188 306 -143 -2 9 -42 41 -90 71 l-88 54 0 109 c0 106 -1 109 -22
110 -14 1 -9 4 12 8 26 4 36 12 38 29 3 22 2 22 -102 22 -95 0 -106 -2 -106
-18z"/>
<path d="M2465 2624 c-126 -80 -237 -152 -245 -160 -12 -11 -16 -51 -20 -179
-3 -91 -2 -165 2 -165 4 0 30 9 57 20 90 35 206 53 310 47 111 -6 179 -25 242
-67 78 -51 85 -106 18 -129 -40 -14 -169 -14 -205 -1 -21 9 -31 7 -46 -7 -19
-17 -19 -18 6 -39 84 -73 258 -84 396 -26 41 18 110 58 152 90 l78 57 0 175
c0 96 -3 185 -6 196 -4 14 -52 52 -127 102 -172 112 -365 232 -374 232 -4 0
-111 -66 -238 -146z m231 -209 c1 -61 -2 -65 -62 -65 l-54 0 0 48 c0 27 3 52
7 56 4 4 30 6 57 4 l51 -3 1 -40z m129 -10 l0 -50 -57 -3 -58 -3 0 49 c0 27 3
52 7 56 4 4 30 6 58 4 l50 -3 0 -50z m-130 -145 l-1 -55 -54 0 -55 0 -3 44
c-5 67 0 72 60 69 l53 -3 0 -55z m130 0 l0 -55 -55 0 -55 0 -3 44 c-5 67 0 72
60 69 l53 -3 0 -55z"/>
</g>
</svg>
